<svg xmlns="http://www.w3.org/2000/svg" viewBox="0 0 1600 900">
  <defs>
    <linearGradient id="g" x1="0" y1="0" x2="1" y2="1">
      <stop offset="0%" stop-color="#0a2858"/>
      <stop offset="60%" stop-color="#155da8"/>
      <stop offset="100%" stop-color="#74dac4"/>
    </linearGradient>
  </defs>
  <rect width="1600" height="900" fill="url(#g)"/>
  <rect x="160" y="220" width="520" height="340" rx="36" fill="#ffffff" opacity="0.12"/>
  <circle cx="300" cy="395" r="32" fill="#67d7ff"/>
  <circle cx="500" cy="395" r="32" fill="#67d7ff"/>
  <rect x="280" y="374" width="240" height="38" rx="19" fill="#eff8ff"/>
  <rect x="345" y="292" width="120" height="38" rx="19" fill="#eff8ff"/>
  <rect x="365" y="330" width="80" height="92" rx="20" fill="#d8eeff"/>
  <rect x="840" y="170" width="520" height="390" rx="36" fill="#ffffff" opacity="0.14"/>
  <path d="M1030 360c0-56 45-102 102-102 36 0 68 18 87 47 8-3 17-4 26-4 40 0 72 32 72 72s-32 72-72 72h-202c-43 0-77-34-77-77s34-77 77-77c8 0 16 1 23 3 13-40 50-69 96-69" fill="#f5fbff"/>
  <path d="M1005 402l120-28 120 28" fill="none" stroke="#0f4d97" stroke-width="10" stroke-linecap="round"/>
  <circle cx="1005" cy="402" r="14" fill="#66d6c3"/>
  <circle cx="1125" cy="374" r="14" fill="#66d6c3"/>
  <circle cx="1245" cy="402" r="14" fill="#66d6c3"/>
  <text x="120" y="120" fill="#ffffff" font-size="64" font-family="Arial" font-weight="700">AUTOMATION &amp; SERVICE</text>
</svg>
