<svg xmlns="http://www.w3.org/2000/svg" viewBox="0 0 1600 900" role="img" aria-labelledby="title desc">
  <title id="title">Automation and Cloud Platform</title>
  <desc id="desc">Automation equipment, robotic arm, kiosk terminal, and cloud data links.</desc>
  <defs>
    <linearGradient id="g" x1="0" y1="0" x2="1" y2="1">
      <stop offset="0%" stop-color="#0b2957"/>
      <stop offset="58%" stop-color="#145ea8"/>
      <stop offset="100%" stop-color="#72d9c5"/>
    </linearGradient>
  </defs>
  <rect width="1600" height="900" fill="url(#g)"/>
  <g transform="translate(120 190)">
    <rect x="0" y="0" width="620" height="410" rx="40" fill="#ffffff" opacity="0.12"/>
    <rect x="84" y="240" width="290" height="34" rx="17" fill="#d9efff"/>
    <circle cx="156" cy="258" r="30" fill="#67d7ff"/>
    <circle cx="390" cy="258" r="30" fill="#67d7ff"/>
    <rect x="180" y="104" width="92" height="92" rx="18" fill="#f5fbff"/>
    <rect x="246" y="138" width="150" height="34" rx="17" fill="#f5fbff"/>
    <rect x="222" y="278" width="36" height="86" rx="18" fill="#d9efff"/>
    <rect x="302" y="278" width="36" height="86" rx="18" fill="#d9efff"/>
  </g>
  <g transform="translate(810 160)">
    <rect x="0" y="0" width="610" height="430" rx="40" fill="#ffffff" opacity="0.14"/>
    <rect x="72" y="74" width="200" height="280" rx="26" fill="#0f2b50"/>
    <rect x="102" y="104" width="140" height="86" rx="16" fill="#82e8ff"/>
    <rect x="102" y="214" width="150" height="20" rx="10" fill="#d9edff"/>
    <g transform="translate(330 100)">
      <rect x="138" y="188" width="120" height="22" rx="11" fill="#eaf7ff"/>
      <rect x="94" y="110" width="130" height="28" rx="14" fill="#eaf7ff"/>
      <circle cx="108" cy="122" r="30" fill="#68d6ff"/>
      <circle cx="242" cy="202" r="30" fill="#68d6ff"/>
      <path d="M108 122l56-62 52 42 34-32" fill="none" stroke="#eaf7ff" stroke-width="18" stroke-linecap="round" stroke-linejoin="round"/>
    </g>
  </g>
  <text x="110" y="120" fill="#ffffff" font-size="62" font-family="Arial" font-weight="700">AUTOMATION &amp; CLOUD</text>
</svg>
