<svg xmlns="http://www.w3.org/2000/svg" viewBox="0 0 1600 900" role="img" aria-labelledby="title desc">
  <title id="title">OEM / ODM Product Development</title>
  <desc id="desc">Product planning, interface design, engineering integration, and handheld controller for OEM and ODM development.</desc>
  <defs>
    <linearGradient id="g" x1="0" y1="0" x2="1" y2="1">
      <stop offset="0%" stop-color="#0b2c60"/>
      <stop offset="60%" stop-color="#1765ba"/>
      <stop offset="100%" stop-color="#73d8c6"/>
    </linearGradient>
  </defs>
  <rect width="1600" height="900" fill="url(#g)"/>
  <circle cx="1260" cy="186" r="160" fill="#b9f0ff" opacity="0.16"/>

  <g transform="translate(110 188)">
    <rect x="0" y="0" width="320" height="250" rx="38" fill="#ffffff" opacity="0.14"/>
    <rect x="60" y="54" width="200" height="150" rx="28" fill="#f5fbff" opacity="0.96"/>
    <rect x="96" y="84" width="128" height="18" rx="9" fill="#8be9ff"/>
    <rect x="96" y="118" width="96" height="18" rx="9" fill="#d9edff"/>
    <rect x="96" y="156" width="120" height="18" rx="9" fill="#d9edff"/>
    <rect x="96" y="194" width="88" height="18" rx="9" fill="#d9edff" opacity="0.8"/>
    <circle cx="220" cy="194" r="30" fill="#4aa7e8"/>
    <path d="M220 168v52M194 194h52" stroke="#dff6ff" stroke-width="10" stroke-linecap="round"/>
  </g>

  <g transform="translate(560 172)">
    <rect x="0" y="0" width="420" height="270" rx="40" fill="#ffffff" opacity="0.14"/>
    <rect x="66" y="52" width="288" height="168" rx="28" fill="#133258"/>
    <rect x="108" y="86" width="92" height="64" rx="16" fill="#274f91"/>
    <rect x="224" y="86" width="88" height="18" rx="9" fill="#79d8ff"/>
    <rect x="224" y="122" width="120" height="18" rx="9" fill="#dcecff"/>
    <rect x="224" y="158" width="96" height="18" rx="9" fill="#dcecff" opacity="0.78"/>
    <path d="M132 232l44-44 44 44" stroke="#99efb0" stroke-width="10" stroke-linecap="round" stroke-linejoin="round"/>
    <path d="M176 164v96" stroke="#99efb0" stroke-width="8" stroke-linecap="round"/>
  </g>

  <g transform="translate(1110 170)">
    <rect x="0" y="0" width="190" height="282" rx="36" fill="#ffffff" opacity="0.14"/>
    <rect x="44" y="40" width="102" height="206" rx="24" fill="#123154"/>
    <rect x="60" y="68" width="70" height="100" rx="14" fill="#8be9ff"/>
    <rect x="66" y="190" width="58" height="16" rx="8" fill="#dcecff"/>
    <rect x="72" y="222" width="46" height="14" rx="7" fill="#dcecff" opacity="0.76"/>
  </g>

  <text x="110" y="116" fill="#ffffff" font-size="62" font-family="Arial" font-weight="700">OEM / ODM PRODUCT DEVELOPMENT</text>
</svg>
