<svg width="1200" height="675" viewBox="0 0 1200 675" fill="none" xmlns="http://www.w3.org/2000/svg">
  <defs>
    <linearGradient id="bg" x1="120" y1="60" x2="1080" y2="615" gradientUnits="userSpaceOnUse">
      <stop stop-color="#F7FBFF"/>
      <stop offset="1" stop-color="#E8F0FF"/>
    </linearGradient>
    <linearGradient id="banner" x1="126" y1="120" x2="1070" y2="248" gradientUnits="userSpaceOnUse">
      <stop stop-color="#10306D"/>
      <stop offset="1" stop-color="#2682DB"/>
    </linearGradient>
  </defs>
  <rect width="1200" height="675" rx="36" fill="url(#bg)"/>
  <rect x="76" y="72" width="1048" height="531" rx="34" fill="#FFF" stroke="#D5E2F5"/>
  <rect x="126" y="120" width="948" height="122" rx="28" fill="url(#banner)"/>
  <text x="182" y="177" fill="white" font-family="Arial, 'Microsoft JhengHei', sans-serif" font-size="44" font-weight="700">智慧電表 / 電力採集設備</text>
  <text x="182" y="218" fill="rgba(255,255,255,0.82)" font-family="Arial, 'Microsoft JhengHei', sans-serif" font-size="24">即時用電監測、資料採集與 EMS 調度分析基礎</text>
  <rect x="184" y="296" width="180" height="192" rx="28" fill="#163A78"/>
  <rect x="216" y="328" width="116" height="78" rx="16" fill="#EAF3FF"/>
  <path d="M244 386C256 366 272 358 290 358C307 358 322 366 334 386" stroke="#4BC7FF" stroke-width="8" stroke-linecap="round"/>
  <circle cx="274" cy="424" r="10" fill="#6ED6A2"/>
  <circle cx="306" cy="424" r="10" fill="#FFD96A"/>
  <rect x="452" y="312" width="552" height="158" rx="28" fill="#F4F8FF" stroke="#D7E4F8"/>
  <path d="M504 424C558 394 612 440 666 392C720 344 774 430 828 388C866 358 904 364 952 404" stroke="#2F82D9" stroke-width="12" stroke-linecap="round"/>
  <circle cx="504" cy="424" r="9" fill="#2F82D9"/>
  <circle cx="666" cy="392" r="9" fill="#2F82D9"/>
  <circle cx="828" cy="388" r="9" fill="#2F82D9"/>
  <rect x="516" y="336" width="166" height="26" rx="13" fill="#E0EBFC"/>
  <text x="530" y="355" fill="#173A79" font-family="Arial, 'Microsoft JhengHei', sans-serif" font-size="22" font-weight="700">即時監測資料</text>
</svg>
