<svg width="1200" height="675" viewBox="0 0 1200 675" fill="none" xmlns="http://www.w3.org/2000/svg">
  <defs>
    <linearGradient id="bg" x1="120" y1="60" x2="1080" y2="615" gradientUnits="userSpaceOnUse">
      <stop stop-color="#F7FBFF"/>
      <stop offset="1" stop-color="#EAF2FF"/>
    </linearGradient>
    <linearGradient id="banner" x1="126" y1="120" x2="1070" y2="248" gradientUnits="userSpaceOnUse">
      <stop stop-color="#123775"/>
      <stop offset="1" stop-color="#2386DE"/>
    </linearGradient>
  </defs>
  <rect width="1200" height="675" rx="36" fill="url(#bg)"/>
  <rect x="76" y="72" width="1048" height="531" rx="34" fill="white" stroke="#D5E2F5"/>
  <rect x="126" y="120" width="948" height="122" rx="28" fill="url(#banner)"/>
  <text x="182" y="177" fill="white" font-family="Arial, 'Microsoft JhengHei', sans-serif" font-size="44" font-weight="700">停車場控制設備</text>
  <text x="182" y="218" fill="rgba(255,255,255,0.82)" font-family="Arial, 'Microsoft JhengHei', sans-serif" font-size="24">入口管制、車位狀態與停管流程整合</text>
  <rect x="172" y="320" width="182" height="132" rx="24" fill="#F3F8FF" stroke="#D7E4F8"/>
  <rect x="208" y="344" width="54" height="86" rx="10" fill="#173B7A"/>
  <circle cx="235" cy="369" r="8" fill="#7CDDAB"/>
  <rect x="286" y="364" width="36" height="12" rx="6" fill="#173B7A"/>
  <path d="M322 370H420" stroke="#4AC99A" stroke-width="10" stroke-linecap="round"/>
  <rect x="420" y="354" width="206" height="32" rx="16" fill="#FFCF66"/>
  <rect x="678" y="304" width="336" height="164" rx="28" fill="#F4F8FF" stroke="#D7E4F8"/>
  <rect x="714" y="340" width="264" height="24" rx="12" fill="#DBE7F9"/>
  <rect x="714" y="380" width="102" height="54" rx="18" fill="#0F316F"/>
  <rect x="836" y="380" width="142" height="54" rx="18" fill="#2E84DE"/>
  <text x="737" y="414" fill="white" font-family="Arial, 'Microsoft JhengHei', sans-serif" font-size="23" font-weight="700">入口</text>
  <text x="872" y="414" fill="white" font-family="Arial, 'Microsoft JhengHei', sans-serif" font-size="23" font-weight="700">車位管理</text>
  <circle cx="1040" cy="386" r="24" fill="#D8F8E9"/>
  <path d="M1028 386L1037 395L1053 377" stroke="#42B37E" stroke-width="8" stroke-linecap="round" stroke-linejoin="round"/>
</svg>
