<svg xmlns="http://www.w3.org/2000/svg" viewBox="0 0 1600 900" role="img" aria-labelledby="title desc">
  <title id="title">Self Service and Smart Healthcare</title>
  <desc id="desc">Healthcare kiosk, digital signage, and check-in workflow display.</desc>
  <defs>
    <linearGradient id="g" x1="0" y1="0" x2="1" y2="1">
      <stop offset="0%" stop-color="#0b2c60"/>
      <stop offset="60%" stop-color="#1765ba"/>
      <stop offset="100%" stop-color="#73d8c6"/>
    </linearGradient>
  </defs>
  <rect width="1600" height="900" fill="url(#g)"/>
  <circle cx="1260" cy="186" r="160" fill="#b9f0ff" opacity="0.16"/>
  <g transform="translate(140 190)">
    <rect x="0" y="0" width="380" height="410" rx="40" fill="#ffffff" opacity="0.12"/>
    <rect x="76" y="70" width="220" height="290" rx="30" fill="#f5fbff" opacity="0.96"/>
    <rect x="112" y="104" width="148" height="96" rx="18" fill="#7de3ff"/>
    <circle cx="186" cy="138" r="24" fill="#ffffff"/>
    <path d="M156 176h60v18h-60z" fill="#0f4d97"/>
    <rect x="130" y="236" width="112" height="20" rx="10" fill="#0f4d97"/>
    <rect x="154" y="272" width="64" height="18" rx="9" fill="#0f4d97" opacity="0.72"/>
  </g>
  <g transform="translate(610 210)">
    <rect x="0" y="0" width="310" height="350" rx="36" fill="#ffffff" opacity="0.12"/>
    <rect x="48" y="40" width="214" height="140" rx="24" fill="#0f2b50"/>
    <rect x="70" y="62" width="170" height="96" rx="18" fill="#8ae8ff"/>
    <path d="M104 110h102M104 138h76" stroke="#0f4d97" stroke-width="14" stroke-linecap="round"/>
    <rect x="80" y="218" width="150" height="22" rx="11" fill="#d9edff"/>
    <rect x="102" y="256" width="106" height="18" rx="9" fill="#d9edff" opacity="0.72"/>
  </g>
  <g transform="translate(1020 206)">
    <rect x="0" y="0" width="290" height="360" rx="36" fill="#ffffff" opacity="0.12"/>
    <rect x="54" y="38" width="182" height="252" rx="26" fill="#123154"/>
    <rect x="82" y="66" width="126" height="120" rx="18" fill="#8be9ff"/>
    <path d="M102 220h86M102 254h64" stroke="#d9ecff" stroke-width="14" stroke-linecap="round"/>
  </g>
  <text x="110" y="120" fill="#ffffff" font-size="62" font-family="Arial" font-weight="700">SELF SERVICE &amp; HEALTHCARE</text>
</svg>
