<svg xmlns="http://www.w3.org/2000/svg" viewBox="0 0 1600 900">
  <defs>
    <linearGradient id="g" x1="0" y1="0" x2="1" y2="1">
      <stop offset="0%" stop-color="#0b2958"/>
      <stop offset="58%" stop-color="#1760ac"/>
      <stop offset="100%" stop-color="#76dac4"/>
    </linearGradient>
  </defs>
  <rect width="1600" height="900" fill="url(#g)"/>
  <rect x="160" y="170" width="500" height="480" rx="40" fill="#ffffff" opacity="0.14"/>
  <rect x="280" y="220" width="240" height="360" rx="30" fill="#f5fbff"/>
  <rect x="330" y="270" width="140" height="180" rx="20" fill="#8ae7ff"/>
  <rect x="350" y="492" width="100" height="16" rx="8" fill="#cedffd"/>
  <g transform="translate(860 220)">
    <rect width="480" height="320" rx="34" fill="#ffffff" opacity="0.14"/>
    <circle cx="110" cy="110" r="46" fill="#7fdbff"/>
    <path d="M98 110h24M110 98v24" stroke="#0e4e98" stroke-width="12" stroke-linecap="round"/>
    <rect x="196" y="84" width="220" height="24" rx="12" fill="#d8ebff"/>
    <rect x="196" y="126" width="180" height="18" rx="9" fill="#d8ebff" opacity="0.74"/>
    <rect x="196" y="160" width="150" height="18" rx="9" fill="#d8ebff" opacity="0.58"/>
    <rect x="56" y="218" width="360" height="42" rx="21" fill="#eff8ff"/>
  </g>
  <text x="120" y="120" fill="#ffffff" font-size="64" font-family="Arial" font-weight="700">SELF-SERVICE HEALTHCARE</text>
</svg>
