<svg width="1200" height="720" viewBox="0 0 1200 720" fill="none" xmlns="http://www.w3.org/2000/svg">
  <defs>
    <linearGradient id="bg1" x1="90" y1="60" x2="1110" y2="660" gradientUnits="userSpaceOnUse">
      <stop stop-color="#F8FBFF"/>
      <stop offset="1" stop-color="#E7F0FF"/>
    </linearGradient>
    <linearGradient id="panel1" x1="0" y1="0" x2="1" y2="1">
      <stop stop-color="#123472"/>
      <stop offset="1" stop-color="#2D84DE"/>
    </linearGradient>
  </defs>
  <rect width="1200" height="720" rx="32" fill="url(#bg1)"/>
  <rect x="78" y="72" width="1044" height="576" rx="30" fill="white" stroke="#D5E2F5"/>
  <rect x="124" y="124" width="952" height="110" rx="26" fill="url(#panel1)"/>
  <text x="174" y="188" fill="white" font-family="Arial, 'Microsoft JhengHei', sans-serif" font-size="40" font-weight="700">智慧製造產線</text>
  <rect x="156" y="316" width="178" height="164" rx="24" fill="#F3F8FF" stroke="#D7E4F8"/>
  <rect x="384" y="316" width="178" height="164" rx="24" fill="#F3F8FF" stroke="#D7E4F8"/>
  <rect x="612" y="316" width="178" height="164" rx="24" fill="#F3F8FF" stroke="#D7E4F8"/>
  <rect x="840" y="316" width="178" height="164" rx="24" fill="#F3F8FF" stroke="#D7E4F8"/>
  <rect x="196" y="354" width="98" height="88" rx="18" fill="#1B4C93"/>
  <rect x="424" y="354" width="98" height="88" rx="18" fill="#2D84DE"/>
  <rect x="652" y="354" width="98" height="88" rx="18" fill="#1B4C93"/>
  <rect x="880" y="354" width="98" height="88" rx="18" fill="#2D84DE"/>
  <path d="M334 398H384" stroke="#69C4F7" stroke-width="10" stroke-linecap="round"/>
  <path d="M562 398H612" stroke="#69C4F7" stroke-width="10" stroke-linecap="round"/>
  <path d="M790 398H840" stroke="#69C4F7" stroke-width="10" stroke-linecap="round"/>
  <rect x="290" y="546" width="620" height="24" rx="12" fill="#D8E6F9"/>
  <text x="406" y="616" fill="#173A79" font-family="Arial, 'Microsoft JhengHei', sans-serif" font-size="28" font-weight="700">設備協作 / 產線控制 / 資料可視化</text>
</svg>
