<svg xmlns="http://www.w3.org/2000/svg" viewBox="0 0 1600 900" role="img" aria-labelledby="title desc">
  <title id="title">Residential and Building Solution</title>
  <desc id="desc">Residential tower, access control, parking, and shared-facility management scene.</desc>
  <defs>
    <linearGradient id="g" x1="0" y1="0" x2="1" y2="1">
      <stop offset="0%" stop-color="#0c2c62"/>
      <stop offset="60%" stop-color="#165eaa"/>
      <stop offset="100%" stop-color="#70d8c2"/>
    </linearGradient>
  </defs>
  <rect width="1600" height="900" fill="url(#g)"/>
  <rect x="0" y="640" width="1600" height="260" fill="#ffffff" opacity="0.08"/>
  <g transform="translate(140 180)">
    <rect x="0" y="0" width="1320" height="410" rx="42" fill="#ffffff" opacity="0.12"/>
    <rect x="90" y="110" width="220" height="280" rx="24" fill="#eff8ff"/>
    <g fill="#8adfff">
      <rect x="126" y="150" width="38" height="42" rx="8"/><rect x="190" y="150" width="38" height="42" rx="8"/>
      <rect x="126" y="220" width="38" height="42" rx="8"/><rect x="190" y="220" width="38" height="42" rx="8"/>
      <rect x="126" y="290" width="38" height="42" rx="8"/><rect x="190" y="290" width="38" height="42" rx="8"/>
    </g>
    <rect x="380" y="70" width="270" height="320" rx="26" fill="#eff8ff"/>
    <g fill="#8adfff">
      <rect x="430" y="110" width="42" height="46" rx="8"/><rect x="500" y="110" width="42" height="46" rx="8"/><rect x="570" y="110" width="42" height="46" rx="8"/>
      <rect x="430" y="190" width="42" height="46" rx="8"/><rect x="500" y="190" width="42" height="46" rx="8"/><rect x="570" y="190" width="42" height="46" rx="8"/>
      <rect x="430" y="270" width="42" height="46" rx="8"/><rect x="500" y="270" width="42" height="46" rx="8"/><rect x="570" y="270" width="42" height="46" rx="8"/>
    </g>
    <rect x="760" y="200" width="220" height="190" rx="24" fill="#eff8ff"/>
    <path d="M790 334h160l24-62h70l24 62h28v34H762v-34h28z" fill="#123f7a"/>
    <circle cx="822" cy="368" r="26" fill="#8adfff"/><circle cx="1020" cy="368" r="26" fill="#8adfff"/>
    <rect x="1080" y="120" width="160" height="270" rx="22" fill="#eff8ff"/>
    <rect x="1112" y="152" width="96" height="110" rx="18" fill="#7de6ff"/>
  </g>
  <text x="110" y="120" fill="#ffffff" font-size="62" font-family="Arial" font-weight="700">RESIDENTIAL &amp; BUILDING</text>
</svg>
