<svg xmlns="http://www.w3.org/2000/svg" viewBox="0 0 1600 900">
  <defs>
    <linearGradient id="g" x1="0" y1="0" x2="1" y2="1">
      <stop offset="0%" stop-color="#0c2c62"/>
      <stop offset="60%" stop-color="#165eaa"/>
      <stop offset="100%" stop-color="#70d8c2"/>
    </linearGradient>
  </defs>
  <rect width="1600" height="900" fill="url(#g)"/>
  <rect x="120" y="250" width="1360" height="420" rx="42" fill="#ffffff" opacity="0.12"/>
  <rect x="250" y="250" width="220" height="290" rx="20" fill="#eff8ff"/>
  <rect x="520" y="190" width="280" height="350" rx="20" fill="#eff8ff"/>
  <rect x="860" y="300" width="250" height="240" rx="20" fill="#eff8ff"/>
  <rect x="1160" y="230" width="180" height="310" rx="20" fill="#eff8ff"/>
  <g fill="#87dfff">
    <rect x="292" y="290" width="38" height="42" rx="8"/>
    <rect x="356" y="290" width="38" height="42" rx="8"/>
    <rect x="292" y="360" width="38" height="42" rx="8"/>
    <rect x="356" y="360" width="38" height="42" rx="8"/>
    <rect x="582" y="240" width="42" height="46" rx="8"/>
    <rect x="652" y="240" width="42" height="46" rx="8"/>
    <rect x="582" y="320" width="42" height="46" rx="8"/>
    <rect x="652" y="320" width="42" height="46" rx="8"/>
  </g>
  <text x="120" y="120" fill="#ffffff" font-size="64" font-family="Arial" font-weight="700">RESIDENTIAL &amp; BUILDING</text>
</svg>
