<svg xmlns="http://www.w3.org/2000/svg" viewBox="0 0 1600 900">
  <defs>
    <linearGradient id="g" x1="0" y1="0" x2="1" y2="1">
      <stop offset="0%" stop-color="#0a2b62"/>
      <stop offset="55%" stop-color="#135bb3"/>
      <stop offset="100%" stop-color="#58cdb9"/>
    </linearGradient>
  </defs>
  <rect width="1600" height="900" fill="url(#g)"/>
  <rect x="150" y="210" width="500" height="390" rx="36" fill="#ffffff" opacity="0.14"/>
  <rect x="228" y="292" width="118" height="220" rx="22" fill="#103259"/>
  <rect x="254" y="326" width="66" height="86" rx="16" fill="#7ddfff"/>
  <path d="M346 342h42c34 0 62 28 62 62v24" fill="none" stroke="#ddf4ff" stroke-width="14" stroke-linecap="round"/>
  <path d="M450 428h24" fill="none" stroke="#ddf4ff" stroke-width="14" stroke-linecap="round"/>
  <g transform="translate(770 220)">
    <rect width="640" height="380" rx="36" fill="#ffffff" opacity="0.16"/>
    <path d="M120 250h250l42-82h100l56 82h46v56H72v-56h48z" fill="#eff8ff"/>
    <circle cx="182" cy="306" r="42" fill="#10284a"/>
    <circle cx="470" cy="306" r="42" fill="#10284a"/>
    <circle cx="182" cy="306" r="16" fill="#8fdcff"/>
    <circle cx="470" cy="306" r="16" fill="#8fdcff"/>
    <rect x="404" y="76" width="128" height="92" rx="18" fill="#ffffff" opacity="0.92"/>
    <text x="468" y="135" text-anchor="middle" fill="#0d4a97" font-size="56" font-family="Arial" font-weight="700">P</text>
  </g>
  <text x="120" y="120" fill="#ffffff" font-size="64" font-family="Arial" font-weight="700">PARKING &amp; EV CHARGING</text>
</svg>
