<svg xmlns="http://www.w3.org/2000/svg" viewBox="0 0 1600 900" role="img" aria-labelledby="title desc">
  <title id="title">Parking and EV Charging Solution</title>
  <desc id="desc">Parking station flow with EV charging and multi-site dashboard.</desc>
  <defs>
    <linearGradient id="g" x1="0" y1="0" x2="1" y2="1">
      <stop offset="0%" stop-color="#0a2b62"/>
      <stop offset="58%" stop-color="#145fb2"/>
      <stop offset="100%" stop-color="#62d7be"/>
    </linearGradient>
  </defs>
  <rect width="1600" height="900" fill="url(#g)"/>
  <g transform="translate(120 190)">
    <rect x="0" y="0" width="1360" height="410" rx="40" fill="#ffffff" opacity="0.12"/>
    <rect x="80" y="80" width="180" height="270" rx="24" fill="#0e305c"/>
    <rect x="114" y="116" width="112" height="112" rx="18" fill="#7fe8ff"/>
    <circle cx="170" cy="288" r="18" fill="#76d8c8"/>
    <path d="M262 148h62c44 0 78 34 78 78v28" fill="none" stroke="#d8f2ff" stroke-width="16" stroke-linecap="round"/>
    <path d="M402 252l28 0" stroke="#d8f2ff" stroke-width="16" stroke-linecap="round"/>
    <path d="M110 306h252l32-74h82l36 74h46v44H72v-44h38z" fill="#eef8ff"/>
    <circle cx="132" cy="364" r="28" fill="#11284a"/><circle cx="132" cy="364" r="12" fill="#94defc"/>
    <circle cx="356" cy="364" r="28" fill="#11284a"/><circle cx="356" cy="364" r="12" fill="#94defc"/>
    <rect x="620" y="78" width="300" height="272" rx="30" fill="#102949"/>
    <rect x="654" y="114" width="232" height="116" rx="18" fill="#8ce8ff"/>
    <path d="M686 266h166M686 300h120" stroke="#d9edff" stroke-width="16" stroke-linecap="round"/>
    <rect x="1040" y="96" width="220" height="254" rx="28" fill="#eff8ff"/>
    <path d="M1080 252h132l20-52h58l22 52h26v30h-286v-30h28z" fill="#123f7a"/>
    <circle cx="1110" cy="282" r="24" fill="#8adfff"/><circle cx="1270" cy="282" r="24" fill="#8adfff"/>
  </g>
  <text x="110" y="120" fill="#ffffff" font-size="62" font-family="Arial" font-weight="700">PARKING &amp; EV SOLUTION</text>
</svg>
