<svg xmlns="http://www.w3.org/2000/svg" viewBox="0 0 1600 900" role="img" aria-labelledby="title desc">
  <title id="title">AIoT Cloud Integration</title>
  <desc id="desc">Illustration with devices, cloud dashboard, data links, and integration nodes.</desc>
  <defs>
    <linearGradient id="bg" x1="0" y1="0" x2="1" y2="1">
      <stop offset="0%" stop-color="#082856"/>
      <stop offset="55%" stop-color="#125db4"/>
      <stop offset="100%" stop-color="#6ed7c2"/>
    </linearGradient>
  </defs>
  <rect width="1600" height="900" fill="url(#bg)"/>
  <circle cx="1260" cy="172" r="160" fill="#9ce9ff" opacity="0.14"/>
  <rect x="0" y="636" width="1600" height="264" fill="#ffffff" opacity="0.1"/>
  <g transform="translate(140 190)">
    <rect x="0" y="0" width="1320" height="390" rx="40" fill="#ffffff" opacity="0.12"/>
    <g transform="translate(70 76)">
      <rect x="0" y="0" width="160" height="240" rx="24" fill="#102b50"/>
      <rect x="28" y="28" width="104" height="138" rx="16" fill="#88e9ff"/>
      <rect x="46" y="196" width="68" height="18" rx="9" fill="#d8ecff"/>
    </g>
    <g transform="translate(308 94)">
      <rect x="0" y="0" width="210" height="204" rx="30" fill="#f4fbff" opacity="0.95"/>
      <path d="M46 146c0-50 40-90 90-90 28 0 52 12 69 32 8-2 15-4 22-4 37 0 67 30 67 67s-30 67-67 67H72c-40 0-72-32-72-72 0-35 26-64 60-70 15-42 41-64 76-64" transform="scale(.62) translate(120 60)" fill="#7ad8ff"/>
      <rect x="38" y="150" width="132" height="18" rx="9" fill="#0f4c97"/>
      <rect x="54" y="184" width="100" height="16" rx="8" fill="#0f4c97" opacity="0.72"/>
    </g>
    <g transform="translate(620 62)">
      <rect x="0" y="0" width="330" height="268" rx="30" fill="#102b50"/>
      <rect x="32" y="32" width="266" height="132" rx="18" fill="#84e8ff"/>
      <rect x="32" y="192" width="198" height="18" rx="9" fill="#d8ecff"/>
      <rect x="32" y="224" width="152" height="16" rx="8" fill="#d8ecff" opacity="0.72"/>
      <circle cx="244" cy="206" r="26" fill="#71d8c8"/>
    </g>
    <g transform="translate(1046 84)">
      <rect x="0" y="0" width="170" height="236" rx="26" fill="#102b50"/>
      <rect x="28" y="28" width="114" height="126" rx="18" fill="#88eaff"/>
      <rect x="52" y="186" width="66" height="18" rx="9" fill="#d8ecff"/>
    </g>
  </g>
  <g stroke="#bce2ff" stroke-width="6" opacity="0.38" fill="none">
    <path d="M370 396h120"/>
    <path d="M556 396h110"/>
    <path d="M960 396h120"/>
    <path d="M236 356c72 10 110 22 160 40"/>
    <path d="M918 356c68 14 106 24 148 40"/>
  </g>
  <circle cx="496" cy="396" r="14" fill="#7bdaff"/>
  <circle cx="670" cy="396" r="14" fill="#7bdaff"/>
  <circle cx="1088" cy="396" r="14" fill="#7bdaff"/>
  <text x="110" y="125" fill="#ffffff" font-size="54" font-family="Arial, Helvetica, sans-serif" font-weight="700" letter-spacing="4">AIOT</text>
  <text x="110" y="180" fill="#dcecff" font-size="28" font-family="Arial, Helvetica, sans-serif">devices / visualization / IT OT Cloud integration</text>
</svg>
