<svg xmlns="http://www.w3.org/2000/svg" viewBox="0 0 1600 900" role="img" aria-labelledby="title desc">
  <title id="title">Automation and Cloud Platform</title>
  <desc id="desc">Illustration of automation systems, robotics, kiosks, and connected cloud services.</desc>
  <defs>
    <linearGradient id="bg" x1="0" y1="0" x2="1" y2="1">
      <stop offset="0%" stop-color="#0b2957"/>
      <stop offset="58%" stop-color="#145ea8"/>
      <stop offset="100%" stop-color="#72d9c5"/>
    </linearGradient>
  </defs>
  <rect width="1600" height="900" fill="url(#bg)"/>
  <g transform="translate(160 200)">
    <rect x="0" y="0" width="520" height="390" rx="40" fill="#ffffff" opacity="0.12"/>
    <rect x="74" y="194" width="270" height="36" rx="18" fill="#d9efff"/>
    <rect x="134" y="120" width="84" height="88" rx="18" fill="#f4fbff"/>
    <rect x="199" y="154" width="120" height="34" rx="17" fill="#f4fbff"/>
    <circle cx="125" cy="214" r="31" fill="#66d6ff"/>
    <circle cx="321" cy="214" r="31" fill="#66d6ff"/>
    <rect x="176" y="232" width="34" height="88" rx="17" fill="#d9efff"/>
    <rect x="250" y="232" width="34" height="88" rx="17" fill="#d9efff"/>
    <rect x="146" y="316" width="56" height="28" rx="14" fill="#10294c"/>
    <rect x="258" y="316" width="56" height="28" rx="14" fill="#10294c"/>
  </g>
  <g transform="translate(780 160)">
    <rect x="0" y="0" width="650" height="430" rx="40" fill="#ffffff" opacity="0.14"/>
    <path d="M176 225c0-68 55-123 123-123 44 0 83 23 105 57 9-3 19-5 29-5 48 0 87 39 87 87s-39 87-87 87H189c-52 0-94-42-94-94s42-94 94-94c9 0 17 1 25 3 15-48 61-83 116-83" fill="#f3f9ff"/>
    <g transform="translate(120 105)" fill="#0f4d97">
      <rect x="0" y="220" width="114" height="20" rx="10"/>
      <rect x="164" y="220" width="114" height="20" rx="10"/>
      <rect x="328" y="220" width="114" height="20" rx="10"/>
      <circle cx="57" cy="150" r="18" fill="#66d6c3"/>
      <circle cx="221" cy="110" r="18" fill="#66d6c3"/>
      <circle cx="385" cy="150" r="18" fill="#66d6c3"/>
      <path d="M57 150l164-40 164 40" fill="none" stroke="#0f4d97" stroke-width="10" stroke-linecap="round" stroke-linejoin="round"/>
    </g>
    <rect x="455" y="58" width="118" height="190" rx="24" fill="#10294b"/>
    <rect x="480" y="85" width="68" height="88" rx="14" fill="#82e8ff"/>
    <rect x="486" y="272" width="56" height="16" rx="8" fill="#d7ebff"/>
    <rect x="486" y="300" width="42" height="16" rx="8" fill="#d7ebff" opacity="0.7"/>
  </g>
  <text x="110" y="125" fill="#ffffff" font-size="54" font-family="Arial, Helvetica, sans-serif" font-weight="700" letter-spacing="4">AUTOMATION &amp; CLOUD</text>
  <text x="110" y="180" fill="#dcecff" font-size="28" font-family="Arial, Helvetica, sans-serif">Equipment / workflows / robotics / cloud connectivity</text>
</svg>
