<svg xmlns="http://www.w3.org/2000/svg" viewBox="0 0 1600 900" role="img" aria-labelledby="title desc">
  <title id="title">Automation and Robotics Development</title>
  <desc id="desc">Automation illustration with robotic arm, conveyor, control interface, and motion lines.</desc>
  <defs>
    <linearGradient id="bg" x1="0" y1="0" x2="1" y2="1">
      <stop offset="0%" stop-color="#0b2957"/>
      <stop offset="58%" stop-color="#145ea8"/>
      <stop offset="100%" stop-color="#72d9c5"/>
    </linearGradient>
  </defs>
  <rect width="1600" height="900" fill="url(#bg)"/>
  <rect x="0" y="640" width="1600" height="260" fill="#ffffff" opacity="0.1"/>
  <g transform="translate(135 190)">
    <rect x="0" y="0" width="600" height="410" rx="40" fill="#ffffff" opacity="0.12"/>
    <rect x="76" y="240" width="290" height="34" rx="17" fill="#d9efff"/>
    <rect x="170" y="96" width="90" height="92" rx="18" fill="#f5fbff"/>
    <rect x="234" y="132" width="144" height="34" rx="17" fill="#f5fbff"/>
    <circle cx="148" cy="258" r="30" fill="#67d7ff"/>
    <circle cx="382" cy="258" r="30" fill="#67d7ff"/>
    <rect x="212" y="276" width="36" height="86" rx="18" fill="#d9efff"/>
    <rect x="292" y="276" width="36" height="86" rx="18" fill="#d9efff"/>
    <rect x="174" y="356" width="66" height="28" rx="14" fill="#10294c"/>
    <rect x="298" y="356" width="66" height="28" rx="14" fill="#10294c"/>
    <path d="M100 116c46-26 86-18 118 20" fill="none" stroke="#9de8ff" stroke-width="10" stroke-linecap="round"/>
    <path d="M420 116c44 12 78 42 106 92" fill="none" stroke="#9de8ff" stroke-width="10" stroke-linecap="round"/>
  </g>
  <g transform="translate(815 160)">
    <rect x="0" y="0" width="610" height="430" rx="40" fill="#ffffff" opacity="0.14"/>
    <rect x="72" y="70" width="210" height="280" rx="26" fill="#0f2b50"/>
    <rect x="102" y="100" width="150" height="86" rx="16" fill="#82e8ff"/>
    <rect x="102" y="212" width="150" height="22" rx="11" fill="#d8ecff"/>
    <rect x="102" y="248" width="110" height="18" rx="9" fill="#d8ecff" opacity="0.72"/>
    <rect x="102" y="280" width="86" height="18" rx="9" fill="#d8ecff" opacity="0.54"/>
    <g transform="translate(320 96)">
      <rect x="140" y="190" width="120" height="22" rx="11" fill="#eaf7ff"/>
      <rect x="90" y="110" width="130" height="28" rx="14" fill="#eaf7ff"/>
      <circle cx="104" cy="122" r="30" fill="#68d6ff"/>
      <circle cx="244" cy="204" r="30" fill="#68d6ff"/>
      <path d="M104 122l60-62 48 44 32-34" fill="none" stroke="#eaf7ff" stroke-width="18" stroke-linecap="round" stroke-linejoin="round"/>
      <path d="M164 60l-22-28" stroke="#eaf7ff" stroke-width="18" stroke-linecap="round"/>
    </g>
  </g>
  <text x="110" y="125" fill="#ffffff" font-size="54" font-family="Arial, Helvetica, sans-serif" font-weight="700" letter-spacing="4">AUTOMATION</text>
  <text x="110" y="180" fill="#dcecff" font-size="28" font-family="Arial, Helvetica, sans-serif">equipment / robotics / motion control systems</text>
</svg>
