<svg xmlns="http://www.w3.org/2000/svg" viewBox="0 0 1600 900" role="img" aria-labelledby="title desc">
  <title id="title">Smart Energy</title>
  <desc id="desc">Illustration of smart energy systems with battery storage, solar panels, and an energy dashboard.</desc>
  <defs>
    <linearGradient id="bg" x1="0" y1="0" x2="1" y2="1">
      <stop offset="0%" stop-color="#0c2f66"/>
      <stop offset="55%" stop-color="#1266c6"/>
      <stop offset="100%" stop-color="#6fd5c4"/>
    </linearGradient>
    <linearGradient id="panel" x1="0" y1="0" x2="0" y2="1">
      <stop offset="0%" stop-color="#9fe7ff"/>
      <stop offset="100%" stop-color="#0d4a97"/>
    </linearGradient>
  </defs>
  <rect width="1600" height="900" fill="url(#bg)"/>
  <circle cx="1320" cy="180" r="180" fill="#ffe36a" opacity="0.35"/>
  <circle cx="1210" cy="200" r="110" fill="#fff2b5" opacity="0.65"/>
  <rect x="0" y="640" width="1600" height="260" fill="#eaf6ff" opacity="0.18"/>
  <g opacity="0.22" stroke="#ffffff">
    <path d="M0 700h1600M0 760h1600M0 820h1600"/>
  </g>
  <g transform="translate(210 240)">
    <rect x="0" y="100" width="250" height="300" rx="26" fill="#f6fbff" opacity="0.96"/>
    <rect x="35" y="135" width="180" height="110" rx="16" fill="#0b3c82"/>
    <rect x="55" y="160" width="55" height="18" rx="9" fill="#64d0ff"/>
    <rect x="55" y="195" width="120" height="14" rx="7" fill="#d5ebff" opacity="0.9"/>
    <rect x="55" y="220" width="90" height="14" rx="7" fill="#d5ebff" opacity="0.7"/>
    <rect x="58" y="275" width="134" height="70" rx="16" fill="#1a78d6"/>
    <path d="M105 290l-18 32h24l-12 23 40-39h-26l14-16z" fill="#fff7bb"/>
    <rect x="280" y="40" width="430" height="270" rx="24" fill="#ffffff" opacity="0.2"/>
    <g transform="translate(320 80)">
      <rect width="130" height="200" rx="12" fill="url(#panel)" transform="skewX(-12)"/>
      <g stroke="#d8f4ff" opacity="0.55">
        <path d="M20 25h90M12 60h92M4 95h92M-4 130h92M-12 165h92"/>
        <path d="M24 16v176M58 10v184M92 6v188"/>
      </g>
      <rect x="165" y="30" width="130" height="200" rx="12" fill="url(#panel)" transform="skewX(-12)"/>
      <g stroke="#d8f4ff" opacity="0.55" transform="translate(165 0)">
        <path d="M20 55h90M12 90h92M4 125h92M-4 160h92M-12 195h92"/>
        <path d="M24 46v176M58 40v184M92 36v188"/>
      </g>
    </g>
    <g transform="translate(760 20)">
      <rect x="0" y="0" width="210" height="330" rx="26" fill="#0e2a54" opacity="0.95"/>
      <rect x="26" y="30" width="158" height="70" rx="16" fill="#123e79"/>
      <rect x="26" y="125" width="158" height="24" rx="12" fill="#56c6f2"/>
      <rect x="26" y="165" width="112" height="18" rx="9" fill="#d4e8ff" opacity="0.95"/>
      <rect x="26" y="198" width="132" height="18" rx="9" fill="#d4e8ff" opacity="0.75"/>
      <rect x="26" y="231" width="90" height="18" rx="9" fill="#d4e8ff" opacity="0.6"/>
      <g transform="translate(130 130)">
        <circle cx="34" cy="34" r="30" fill="#67ddbe"/>
        <path d="M34 14v18l12 10" fill="none" stroke="#083461" stroke-width="10" stroke-linecap="round" stroke-linejoin="round"/>
      </g>
    </g>
  </g>
  <text x="110" y="125" fill="#ffffff" font-size="54" font-family="Arial, Helvetica, sans-serif" font-weight="700" letter-spacing="4">SMART ENERGY</text>
  <text x="110" y="182" fill="#dcecff" font-size="28" font-family="Arial, Helvetica, sans-serif">EMS / storage / solar / energy intelligence</text>
</svg>
