<svg xmlns="http://www.w3.org/2000/svg" viewBox="0 0 1600 900" role="img" aria-labelledby="title desc">
  <title id="title">OEM ODM Product Development</title>
  <desc id="desc">Illustration showing product planning, PCB motherboard design, mechanical blueprint, and prototyping concepts.</desc>
  <defs>
    <linearGradient id="bg" x1="0" y1="0" x2="1" y2="1">
      <stop offset="0%" stop-color="#0b2a5d"/>
      <stop offset="56%" stop-color="#135eb2"/>
      <stop offset="100%" stop-color="#6fd8c4"/>
    </linearGradient>
    <linearGradient id="board" x1="0" y1="0" x2="0" y2="1">
      <stop offset="0%" stop-color="#123f7a"/>
      <stop offset="100%" stop-color="#0b2a50"/>
    </linearGradient>
  </defs>
  <rect width="1600" height="900" fill="url(#bg)"/>
  <circle cx="1290" cy="176" r="156" fill="#fff1b1" opacity="0.2"/>
  <rect x="0" y="635" width="1600" height="265" fill="#ffffff" opacity="0.08"/>

  <g transform="translate(140 185)">
    <rect x="0" y="0" width="1320" height="408" rx="42" fill="#ffffff" opacity="0.1"/>

    <g transform="translate(54 54)">
      <rect x="0" y="0" width="292" height="282" rx="32" fill="#f5fbff" opacity="0.96"/>
      <rect x="34" y="34" width="224" height="34" rx="17" fill="#0f4b97"/>
      <path d="M36 106h180M36 144h210M36 182h162" stroke="#73d8ff" stroke-width="18" stroke-linecap="round"/>
      <circle cx="224" cy="176" r="52" fill="#d4e9ff"/>
      <path d="M202 176l18 18 36-44" fill="none" stroke="#0f5eb8" stroke-width="14" stroke-linecap="round" stroke-linejoin="round"/>
      <rect x="74" y="226" width="120" height="20" rx="10" fill="#d9edff"/>
    </g>

    <g transform="translate(430 28)">
      <rect x="0" y="0" width="350" height="336" rx="36" fill="url(#board)" opacity="0.98"/>
      <rect x="34" y="34" width="282" height="268" rx="24" fill="#10345f"/>
      <rect x="64" y="62" width="100" height="80" rx="14" fill="#1c7adb"/>
      <rect x="188" y="62" width="90" height="50" rx="12" fill="#6ad6ff"/>
      <rect x="188" y="126" width="74" height="78" rx="12" fill="#224c7c"/>
      <rect x="72" y="176" width="86" height="48" rx="10" fill="#d8edff"/>
      <rect x="76" y="236" width="180" height="22" rx="11" fill="#6bd8c7"/>
      <g stroke="#7dd8ff" stroke-width="8" opacity="0.85" fill="none">
        <path d="M164 104h24l24 22h42"/>
        <path d="M160 198h46l24-22h34"/>
        <path d="M118 142h64l22 24h48"/>
        <path d="M118 248h44l28-18h56"/>
      </g>
      <circle cx="280" cy="142" r="12" fill="#8be9ff"/>
      <circle cx="270" cy="248" r="12" fill="#8be9ff"/>
      <circle cx="98" cy="104" r="10" fill="#8be9ff"/>
    </g>

    <g transform="translate(860 40)">
      <rect x="0" y="0" width="310" height="308" rx="34" fill="#e9f7ff" opacity="0.95"/>
      <rect x="34" y="34" width="242" height="240" rx="24" fill="#15437f"/>
      <g stroke="#8ce7ff" stroke-width="5" opacity="0.85" fill="none">
        <path d="M58 80h194M58 120h194M58 160h194M58 200h194"/>
        <path d="M88 52v204M136 52v204M184 52v204M232 52v204"/>
        <path d="M88 208l60-64 34 28 44-52"/>
        <circle cx="88" cy="208" r="10" fill="#8ce7ff"/>
        <circle cx="148" cy="144" r="10" fill="#8ce7ff"/>
        <circle cx="182" cy="172" r="10" fill="#8ce7ff"/>
        <circle cx="226" cy="120" r="10" fill="#8ce7ff"/>
      </g>
      <path d="M112 290h86" stroke="#0f4c97" stroke-width="18" stroke-linecap="round"/>
    </g>

    <g transform="translate(1218 88)">
      <rect x="0" y="0" width="86" height="196" rx="18" fill="#0f2a52"/>
      <rect x="18" y="18" width="50" height="70" rx="12" fill="#8be8ff"/>
      <rect x="18" y="106" width="50" height="18" rx="9" fill="#d8ecff"/>
      <rect x="18" y="138" width="50" height="18" rx="9" fill="#d8ecff" opacity="0.72"/>
      <rect x="18" y="170" width="50" height="12" rx="6" fill="#67ddbe"/>
    </g>
  </g>

  <text x="110" y="122" fill="#ffffff" font-size="54" font-family="Arial, Helvetica, sans-serif" font-weight="700" letter-spacing="4">OEM / ODM</text>
  <text x="110" y="176" fill="#dcecff" font-size="28" font-family="Arial, Helvetica, sans-serif">PCB layout / mechanical design / prototyping</text>
</svg>
