<svg xmlns="http://www.w3.org/2000/svg" viewBox="0 0 1600 900" role="img" aria-labelledby="title desc">
  <title id="title">Smart Parking and EV Charging</title>
  <desc id="desc">Illustration with parking guidance, EV charger, and vehicle flow dashboard.</desc>
  <defs>
    <linearGradient id="bg" x1="0" y1="0" x2="1" y2="1">
      <stop offset="0%" stop-color="#082856"/>
      <stop offset="50%" stop-color="#1358af"/>
      <stop offset="100%" stop-color="#64d7be"/>
    </linearGradient>
  </defs>
  <rect width="1600" height="900" fill="url(#bg)"/>
  <rect x="0" y="625" width="1600" height="275" fill="#ffffff" opacity="0.1"/>
  <g opacity="0.16" stroke="#ffffff" stroke-width="3">
    <path d="M90 220h1420M90 320h1420M90 420h1420M90 520h1420"/>
  </g>
  <g transform="translate(150 175)">
    <rect x="0" y="0" width="525" height="355" rx="34" fill="#ffffff" opacity="0.14"/>
    <rect x="52" y="55" width="132" height="250" rx="20" fill="#0e305b"/>
    <rect x="78" y="90" width="80" height="74" rx="14" fill="#76dcff"/>
    <path d="M186 112h28c26 0 46 20 46 46v34" fill="none" stroke="#d8f1ff" stroke-width="14" stroke-linecap="round"/>
    <path d="M260 192l28 0" stroke="#d8f1ff" stroke-width="14" stroke-linecap="round"/>
    <path d="M82 266h208l30-74h86l34 74h42v48H40v-48h42z" fill="#eef8ff"/>
    <circle cx="94" cy="332" r="30" fill="#11284a"/><circle cx="94" cy="332" r="13" fill="#92defe"/>
    <circle cx="324" cy="332" r="30" fill="#11284a"/><circle cx="324" cy="332" r="13" fill="#92defe"/>
    <rect x="315" y="82" width="126" height="90" rx="18" fill="#ffffff" opacity="0.92"/>
    <text x="378" y="142" text-anchor="middle" fill="#0d4a97" font-size="56" font-family="Arial" font-weight="700">P</text>
  </g>
  <g transform="translate(805 150)">
    <rect x="0" y="0" width="635" height="430" rx="36" fill="#ffffff" opacity="0.14"/>
    <rect x="66" y="82" width="150" height="252" rx="24" fill="#0c294f"/>
    <rect x="96" y="112" width="90" height="116" rx="16" fill="#89e9ff"/>
    <circle cx="141" cy="278" r="18" fill="#7fd8c8"/>
    <path d="M216 138h60c42 0 76 34 76 76v24" fill="none" stroke="#ddf4ff" stroke-width="16" stroke-linecap="round"/>
    <path d="M352 238l26 0" stroke="#ddf4ff" stroke-width="16" stroke-linecap="round"/>
    <g transform="translate(300 145)">
      <path d="M70 0c82 0 148 50 148 116s-66 116-148 116S0 182 0 116 66 0 70 0z" fill="#eef8ff"/>
      <path d="M48 90l42-44 36 24 54-26 18 34-88 102z" fill="#0f61bc"/>
      <circle cx="48" cy="204" r="32" fill="#11284a"/><circle cx="48" cy="204" r="13" fill="#94defc"/>
      <circle cx="166" cy="204" r="32" fill="#11284a"/><circle cx="166" cy="204" r="13" fill="#94defc"/>
    </g>
    <rect x="468" y="76" width="104" height="180" rx="22" fill="#123c75"/>
    <rect x="492" y="100" width="56" height="84" rx="12" fill="#8de8ff"/>
    <rect x="486" y="286" width="68" height="18" rx="9" fill="#d8ecff"/>
    <rect x="486" y="316" width="50" height="18" rx="9" fill="#d8ecff" opacity="0.7"/>
  </g>
  <text x="110" y="122" fill="#ffffff" font-size="54" font-family="Arial, Helvetica, sans-serif" font-weight="700" letter-spacing="4">PARKING &amp; EV</text>
  <text x="110" y="176" fill="#dcecff" font-size="28" font-family="Arial, Helvetica, sans-serif">parking guidance / charging / site operations</text>
</svg>
