<svg xmlns="http://www.w3.org/2000/svg" viewBox="0 0 1600 900" role="img" aria-labelledby="title desc">
  <title id="title">Smart Security Vision</title>
  <desc id="desc">AI security vision illustration with camera hardware, analytics screen, and alerts.</desc>
  <defs>
    <linearGradient id="bg" x1="0" y1="0" x2="1" y2="1">
      <stop offset="0%" stop-color="#071d43"/>
      <stop offset="55%" stop-color="#0b4ea0"/>
      <stop offset="100%" stop-color="#62ceb4"/>
    </linearGradient>
  </defs>
  <rect width="1600" height="900" fill="url(#bg)"/>
  <circle cx="1285" cy="190" r="210" fill="#8de9c0" opacity="0.18"/>
  <g transform="translate(150 185)">
    <rect x="0" y="0" width="650" height="416" rx="40" fill="#ffffff" opacity="0.1"/>
    <rect x="135" y="140" width="300" height="120" rx="34" fill="#f7fbff"/>
    <path d="M435 200h170l66-60v122l-66-62H435z" fill="#dcefff"/>
    <circle cx="292" cy="200" r="64" fill="#103765"/>
    <circle cx="292" cy="200" r="40" fill="#75deff"/>
    <circle cx="292" cy="200" r="20" fill="#0d4c97"/>
    <rect x="212" y="268" width="88" height="70" rx="18" fill="#dbefff"/>
    <rect x="246" y="328" width="18" height="74" rx="9" fill="#dbefff"/>
    <rect x="72" y="370" width="350" height="26" rx="13" fill="#dbefff"/>
  </g>
  <g transform="translate(915 160)">
    <rect x="0" y="0" width="478" height="450" rx="36" fill="#ffffff" opacity="0.12"/>
    <rect x="56" y="58" width="366" height="228" rx="24" fill="#102949"/>
    <rect x="84" y="88" width="140" height="88" rx="18" fill="#62d7ff"/>
    <rect x="244" y="88" width="142" height="22" rx="11" fill="#cde6ff"/>
    <rect x="244" y="126" width="118" height="18" rx="9" fill="#cde6ff" opacity="0.74"/>
    <rect x="244" y="158" width="92" height="18" rx="9" fill="#cde6ff" opacity="0.58"/>
    <g transform="translate(92 320)">
      <rect width="118" height="74" rx="18" fill="#ffffff" opacity="0.92"/>
      <text x="59" y="47" text-anchor="middle" fill="#0e4e9f" font-size="36" font-family="Arial" font-weight="700">AI</text>
    </g>
    <g transform="translate(238 320)">
      <rect width="148" height="74" rx="18" fill="#7ed7c7"/>
      <text x="74" y="47" text-anchor="middle" fill="#0d315f" font-size="28" font-family="Arial" font-weight="700">ALERT</text>
    </g>
  </g>
  <g stroke="#b9dfff" stroke-width="4" opacity="0.35" fill="none">
    <path d="M802 154c150 36 251 112 318 219"/>
    <path d="M824 644c86-129 193-210 316-257"/>
    <path d="M645 368c145-5 257 19 393 87"/>
  </g>
  <text x="110" y="125" fill="#ffffff" font-size="54" font-family="Arial, Helvetica, sans-serif" font-weight="700" letter-spacing="4">AI VISION</text>
  <text x="110" y="180" fill="#dcecff" font-size="28" font-family="Arial, Helvetica, sans-serif">monitoring / analytics / perimeter alerts</text>
</svg>
